HIERARCHY
ROOT Hips
{
    OFFSET 0.000000 0.000000 0.000000
    CHANNELS 6 Xposition Yposition Zposition Zrotation Xrotation Yrotation
    JOINT Spine
    {
        OFFSET -0.000000 14.517291 0.000000
        CHANNELS 3 Zrotation Xrotation Yrotation
        JOINT Spine1
        {
            OFFSET -0.000000 37.558300 0.000000
            CHANNELS 3 Zrotation Xrotation Yrotation
            JOINT Neck
            {
                OFFSET -0.000000 37.404057 3.400369
                CHANNELS 3 Zrotation Xrotation Yrotation
                JOINT Head
                {
                    OFFSET -0.000000 24.785618 -3.540803
                    CHANNELS 3 Zrotation Xrotation Yrotation
                    End Site
                    {
                        OFFSET -0.000000 35.408028 0.000000
                    }
                }
            }
            JOINT LeftShoulder
            {
                OFFSET 6.992933 33.973492 -0.192664
                CHANNELS 3 Zrotation Xrotation Yrotation
                JOINT LeftArm
                {
                    OFFSET 21.527611 0.000000 0.000000
                    CHANNELS 3 Zrotation Xrotation Yrotation
                    JOINT LeftForeArm
                    {
                        OFFSET 56.353916 0.000000 0.000000
                        CHANNELS 3 Zrotation Xrotation Yrotation
                        JOINT LeftHand
                        {
                            OFFSET 47.774071 0.000000 0.000000
                            CHANNELS 3 Zrotation Xrotation Yrotation
                            End Site
                            {
                                OFFSET 26.556021 0.000000 0.000000
                            }
                        }
                    }
                }
            }
            JOINT RightShoulder
            {
                OFFSET -7.065357 33.973492 -0.192664
                CHANNELS 3 Zrotation Xrotation Yrotation
                JOINT RightArm
                {
                    OFFSET -21.527611 0.000000 0.000000
                    CHANNELS 3 Zrotation Xrotation Yrotation
                    JOINT RightForeArm
                    {
                        OFFSET -56.353916 0.000000 0.000000
                        CHANNELS 3 Zrotation Xrotation Yrotation
                        JOINT RightHand
                        {
                            OFFSET -47.774071 0.000000 0.000000
                            CHANNELS 3 Zrotation Xrotation Yrotation
                            End Site
                            {
                                OFFSET -26.556021 0.000000 0.000000
                            }
                        }
                    }
                }
            }
        }
    }
    JOINT LeftUpLeg
    {
        OFFSET 17.704014 0.000000 0.000000
        CHANNELS 3 Zrotation Xrotation Yrotation
        JOINT LeftLeg
        {
            OFFSET -0.000000 -81.181816 0.000000
            CHANNELS 3 Zrotation Xrotation Yrotation
            JOINT LeftFoot
            {
                OFFSET -0.000000 -62.821102 0.000000
                CHANNELS 3 Zrotation Xrotation Yrotation
                JOINT LeftToeBase
                {
                    OFFSET -0.000000 -11.507608 26.556021
                    CHANNELS 3 Zrotation Xrotation Yrotation
                    End Site
                    {
                        OFFSET -0.000000 0.000000 7.081605
                    }
                }
            }
        }
    }
    JOINT RightUpLeg
    {
        OFFSET -17.704014 0.000000 0.000000
        CHANNELS 3 Zrotation Xrotation Yrotation
        JOINT RightLeg
        {
            OFFSET -0.000000 -81.181816 0.000000
            CHANNELS 3 Zrotation Xrotation Yrotation
            JOINT RightFoot
            {
                OFFSET -0.000000 -62.821102 0.000000
                CHANNELS 3 Zrotation Xrotation Yrotation
                JOINT RightToeBase
                {
                    OFFSET -0.000000 -11.507608 26.556021
                    CHANNELS 3 Zrotation Xrotation Yrotation
                    End Site
                    {
                        OFFSET -0.000000 0.000000 7.081605
                    }
                }
            }
        }
    }
}
MOTION
Frames:    7
Frame Time:    0.008333
25.956131    149.921555    -22.674202    2.316845    5.077412    -12.697364    -0.260848    2.591892    10.004991    -2.542363    -0.040650    3.332111    3.495043    0.119545    -0.159802    2.906078    -7.599434    -0.079668    -0.911651    4.605638    -6.926736    -43.236897    14.260145    -43.082684    6.491714    -35.959061    -122.180779    -4.404421    -25.560293    -8.317498    -4.257538    9.771428    4.738243    33.511471    7.536250    60.493946    -17.279423    -23.436960    65.125969    12.330959    -9.097204    34.365681    -3.314854    -37.026730    -10.506398    -21.292519    34.095608    -10.236053    10.176234    -2.651038    37.304073    0.000000    0.000000    0.000000    8.648026    3.768725    -21.043653    2.190214    28.584522    -4.197385    -4.461481    -34.962044    -12.207142    0.000000    0.000000    0.000000    
25.938889    149.771591    -22.608297    2.387187    4.976307    -12.625784    -0.311210    2.644467    10.013892    -2.484855    -0.031498    3.334872    3.455693    0.164899    -0.151097    2.801286    -7.595449    -0.085309    -0.937213    4.617876    -6.921753    -43.268017    14.186564    -43.099461    6.416364    -35.848709    -122.247253    -4.373179    -25.550322    -8.296049    -4.301861    9.722938    4.770321    33.483658    7.549755    60.403397    -17.434874    -23.594683    65.084641    12.317213    -9.179099    34.364319    -3.480208    -37.033348    -10.675848    -21.411991    34.288399    -10.194387    10.349943    -2.743170    37.396217    0.000000    0.000000    0.000000    8.506805    3.770695    -21.081686    2.295703    28.916281    -4.306582    -4.514372    -35.243828    -12.247961    0.000000    0.000000    0.000000    
25.914032    149.603790    -22.541540    2.443290    4.864632    -12.548941    -0.344314    2.701730    10.022763    -2.447031    -0.011720    3.337941    3.433596    0.206155    -0.149526    2.708643    -7.569558    -0.098899    -0.944391    4.625968    -6.905672    -43.224464    14.241959    -43.153667    6.445847    -35.931984    -122.226753    -4.432115    -25.592710    -8.349774    -4.323300    9.730525    4.774508    33.524895    7.444585    60.356785    -17.465860    -23.656906    65.087036    12.330634    -9.216366    34.407578    -3.624600    -37.034782    -10.846775    -21.567665    34.498547    -10.155272    10.551369    -2.861173    37.523540    0.000000    0.000000    0.000000    8.401229    3.811160    -21.234785    2.305525    29.200464    -4.291922    -4.538360    -35.559849    -12.270411    0.000000    0.000000    0.000000    
25.886658    149.418961    -22.468433    2.493840    4.722668    -12.457767    -0.383534    2.802614    10.027759    -2.400883    -0.022638    3.338970    3.366366    0.244442    -0.162740    2.681916    -7.508701    -0.108498    -0.970202    4.654678    -6.905350    -43.147850    14.321877    -43.214897    6.507600    -36.079197    -122.186607    -4.517828    -25.655785    -8.402923    -4.327680    9.740784    4.779780    33.501648    7.398759    60.303852    -17.579140    -23.797659    65.038513    12.437860    -9.264350    34.469307    -3.779503    -37.004631    -10.993367    -21.709484    34.724865    -10.115824    10.781365    -2.994370    37.619942    0.000000    0.000000    0.000000    8.343049    3.915810    -21.488930    2.184246    29.474957    -4.230042    -4.505884    -35.947586    -12.201132    0.000000    0.000000    0.000000    
25.836271    149.233856    -22.399460    2.512291    4.610125    -12.344433    -0.384470    2.872108    10.023836    -2.364339    -0.024378    3.337554    3.268417    0.297278    -0.196646    2.726299    -7.457240    -0.119959    -0.981510    4.664773    -6.925163    -43.082848    14.375012    -43.247353    6.555765    -36.183002    -122.162285    -4.581289    -25.692135    -8.431161    -4.345155    9.753591    4.774698    33.507294    7.355650    60.259480    -17.701128    -23.917522    64.982094    12.483015    -9.314036    34.457287    -3.891841    -36.998520    -11.101539    -21.852970    34.960091    -10.071856    11.022967    -3.135590    37.695587    0.000000    0.000000    0.000000    8.336181    3.943984    -21.753643    2.003115    29.767542    -4.119653    -4.406950    -36.260426    -12.160574    0.000000    0.000000    0.000000    
25.789446    149.052490    -22.343086    2.515931    4.547890    -12.212807    -0.344708    2.881433    10.004673    -2.355605    0.002793    3.332069    3.195183    0.331544    -0.237145    2.765581    -7.402035    -0.143678    -0.992555    4.646826    -6.952651    -43.042244    14.402661    -43.255852    6.581517    -36.209988    -122.149330    -4.649289    -25.676601    -8.470485    -4.348129    9.736691    4.789810    33.622387    7.235357    60.159893    -17.695362    -23.901445    65.021652    12.423257    -9.322466    34.354256    -3.993162    -37.045723    -11.199042    -21.980843    35.212994    -10.050449    11.257292    -3.282099    37.767731    0.000000    0.000000    0.000000    8.345027    3.904185    -21.926315    1.876946    30.095606    -4.003190    -4.418299    -36.541981    -12.248825    0.000000    0.000000    0.000000    
25.729036    148.865585    -22.275261    2.495170    4.486965    -12.068319    -0.295458    2.861476    9.984754    -2.327728    0.064320    3.327111    3.194141    0.328612    -0.267482    2.713706    -7.298459    -0.188087    -1.002784    4.642982    -6.949468    -42.979523    14.484100    -43.322906    6.625319    -36.277721    -122.100975    -4.705787    -25.685856    -8.497553    -4.336540    9.707243    4.799915    33.704147    7.152519    60.059719    -17.704493    -23.954178    65.009148    12.452888    -9.367074    34.353996    -4.067548    -37.090229    -11.258047    -22.209402    35.444908    -9.755630    11.623635    -3.367426    37.721237    0.000000    0.000000    0.000000    8.381824    3.850503    -22.056473    1.773615    30.466942    -3.881450    -4.412984    -36.802441    -12.406813    0.000000    0.000000    0.000000    
